<svg width="3001" height="3001" viewBox="0 0 3001 3001" fill="none" xmlns="http://www.w3.org/2000/svg">
<path fill-rule="evenodd" clip-rule="evenodd" d="M1230.1 2093.81C1198.92 2094.88 1169.41 2079.74 1152.11 2053.79L904.827 1682.86H588.99V1502.86H952.993C983.085 1502.86 1011.19 1517.9 1027.88 1542.93L1221.1 1832.77L1696.86 1000.2C1713.33 971.378 1744.32 953.962 1777.5 954.883C1810.68 955.804 1840.66 974.912 1855.5 1004.6L2104.63 1502.86H2413.01V1682.86H2049.01C2014.92 1682.86 1983.76 1663.6 1968.51 1633.11L1769.71 1235.51L1305.14 2048.51C1289.66 2075.6 1261.27 2092.74 1230.1 2093.81Z" fill="white"/>
<path d="M449.641 2229.23H173.239V771.114H449.641V626.904H0.989014V2373.44H449.641V2229.23Z" fill="white"/>
<path d="M2552.35 2229.23H2828.75V771.111H2552.35V626.902H3001V2373.44H2552.35V2229.23Z" fill="white"/>
</svg>
